<mxfile host="app.diagrams.net" modified="2023-02-14T18:51:53.667Z" agent="5.0 (Macintosh; Intel Mac OS X 10_15_7) AppleWebKit/537.36 (KHTML, like Gecko) Chrome/110.0.0.0 Safari/537.36" etag="yibHbQIfjGvQD5dNoQsG" version="20.8.16" type="github">
  <diagram name="Page-1" id="Lf0gKQgDN4O0OOYqVEeT">
    <mxGraphModel dx="954" dy="502" grid="1" gridSize="10" guides="1" tooltips="1" connect="1" arrows="1" fold="1" page="1" pageScale="1" pageWidth="850" pageHeight="1100" math="0" shadow="0">
      <root>
        <mxCell id="0" />
        <mxCell id="1" parent="0" />
        <mxCell id="TeG-pFLX9MFdJFeXtA5G-20" value="" style="rounded=1;whiteSpace=wrap;html=1;dashed=1;" vertex="1" parent="1">
          <mxGeometry x="90" y="20" width="420" height="470" as="geometry" />
        </mxCell>
        <mxCell id="TeG-pFLX9MFdJFeXtA5G-1" value="&lt;b&gt;P&lt;/b&gt;artition" style="rhombus;whiteSpace=wrap;html=1;fillColor=#ffe6cc;strokeColor=#d79b00;" vertex="1" parent="1">
          <mxGeometry x="355" y="50" width="140" height="130" as="geometry" />
        </mxCell>
        <mxCell id="TeG-pFLX9MFdJFeXtA5G-2" value="&lt;b&gt;A&lt;/b&gt;vailability" style="ellipse;whiteSpace=wrap;html=1;aspect=fixed;fillColor=#f8cecc;strokeColor=#b85450;" vertex="1" parent="1">
          <mxGeometry x="130" y="360" width="80" height="80" as="geometry" />
        </mxCell>
        <mxCell id="TeG-pFLX9MFdJFeXtA5G-3" value="&lt;b&gt;C&lt;/b&gt;onsistency" style="ellipse;whiteSpace=wrap;html=1;aspect=fixed;fillColor=#d5e8d4;strokeColor=#82b366;" vertex="1" parent="1">
          <mxGeometry x="290" y="360" width="80" height="80" as="geometry" />
        </mxCell>
        <mxCell id="TeG-pFLX9MFdJFeXtA5G-4" value="&lt;b&gt;C&lt;/b&gt;onsistency" style="ellipse;whiteSpace=wrap;html=1;aspect=fixed;fillColor=#d5e8d4;strokeColor=#82b366;" vertex="1" parent="1">
          <mxGeometry x="700" y="360" width="80" height="80" as="geometry" />
        </mxCell>
        <mxCell id="TeG-pFLX9MFdJFeXtA5G-5" value="&lt;b&gt;L&lt;/b&gt;atency" style="ellipse;whiteSpace=wrap;html=1;aspect=fixed;fillColor=#e1d5e7;strokeColor=#9673a6;" vertex="1" parent="1">
          <mxGeometry x="560" y="360" width="80" height="80" as="geometry" />
        </mxCell>
        <mxCell id="TeG-pFLX9MFdJFeXtA5G-7" value="" style="endArrow=none;html=1;rounded=0;entryX=0;entryY=0.5;entryDx=0;entryDy=0;" edge="1" parent="1" target="TeG-pFLX9MFdJFeXtA5G-1">
          <mxGeometry width="50" height="50" relative="1" as="geometry">
            <mxPoint x="240" y="115" as="sourcePoint" />
            <mxPoint x="450" y="240" as="targetPoint" />
          </mxGeometry>
        </mxCell>
        <mxCell id="TeG-pFLX9MFdJFeXtA5G-8" value="" style="endArrow=none;html=1;rounded=0;entryX=1;entryY=0.5;entryDx=0;entryDy=0;" edge="1" parent="1" target="TeG-pFLX9MFdJFeXtA5G-1">
          <mxGeometry width="50" height="50" relative="1" as="geometry">
            <mxPoint x="660" y="115" as="sourcePoint" />
            <mxPoint x="450" y="240" as="targetPoint" />
          </mxGeometry>
        </mxCell>
        <mxCell id="TeG-pFLX9MFdJFeXtA5G-9" value="" style="endArrow=none;html=1;rounded=0;" edge="1" parent="1">
          <mxGeometry width="50" height="50" relative="1" as="geometry">
            <mxPoint x="240" y="274" as="sourcePoint" />
            <mxPoint x="240" y="114" as="targetPoint" />
          </mxGeometry>
        </mxCell>
        <mxCell id="TeG-pFLX9MFdJFeXtA5G-10" value="" style="endArrow=none;html=1;rounded=0;" edge="1" parent="1">
          <mxGeometry width="50" height="50" relative="1" as="geometry">
            <mxPoint x="660" y="275" as="sourcePoint" />
            <mxPoint x="660" y="115" as="targetPoint" />
          </mxGeometry>
        </mxCell>
        <mxCell id="TeG-pFLX9MFdJFeXtA5G-11" value="" style="endArrow=none;html=1;rounded=0;" edge="1" parent="1">
          <mxGeometry width="50" height="50" relative="1" as="geometry">
            <mxPoint x="170" y="274" as="sourcePoint" />
            <mxPoint x="330" y="274" as="targetPoint" />
          </mxGeometry>
        </mxCell>
        <mxCell id="TeG-pFLX9MFdJFeXtA5G-12" value="" style="endArrow=classic;html=1;rounded=0;entryX=0.5;entryY=0;entryDx=0;entryDy=0;" edge="1" parent="1">
          <mxGeometry width="50" height="50" relative="1" as="geometry">
            <mxPoint x="330" y="274" as="sourcePoint" />
            <mxPoint x="330" y="354" as="targetPoint" />
          </mxGeometry>
        </mxCell>
        <mxCell id="TeG-pFLX9MFdJFeXtA5G-13" value="" style="endArrow=classic;html=1;rounded=0;entryX=0.5;entryY=0;entryDx=0;entryDy=0;" edge="1" parent="1">
          <mxGeometry width="50" height="50" relative="1" as="geometry">
            <mxPoint x="169.5" y="274" as="sourcePoint" />
            <mxPoint x="169.5" y="354" as="targetPoint" />
          </mxGeometry>
        </mxCell>
        <mxCell id="TeG-pFLX9MFdJFeXtA5G-14" value="" style="endArrow=none;html=1;rounded=0;" edge="1" parent="1">
          <mxGeometry width="50" height="50" relative="1" as="geometry">
            <mxPoint x="590" y="275" as="sourcePoint" />
            <mxPoint x="740" y="275" as="targetPoint" />
            <Array as="points">
              <mxPoint x="650" y="275" />
            </Array>
          </mxGeometry>
        </mxCell>
        <mxCell id="TeG-pFLX9MFdJFeXtA5G-15" value="" style="endArrow=classic;html=1;rounded=0;entryX=0.5;entryY=0;entryDx=0;entryDy=0;" edge="1" parent="1">
          <mxGeometry width="50" height="50" relative="1" as="geometry">
            <mxPoint x="739.5" y="274" as="sourcePoint" />
            <mxPoint x="739.5" y="354" as="targetPoint" />
          </mxGeometry>
        </mxCell>
        <mxCell id="TeG-pFLX9MFdJFeXtA5G-16" value="" style="endArrow=classic;html=1;rounded=0;entryX=0.5;entryY=0;entryDx=0;entryDy=0;" edge="1" parent="1">
          <mxGeometry width="50" height="50" relative="1" as="geometry">
            <mxPoint x="590" y="276" as="sourcePoint" />
            <mxPoint x="590" y="356" as="targetPoint" />
          </mxGeometry>
        </mxCell>
        <mxCell id="TeG-pFLX9MFdJFeXtA5G-17" value="Yes" style="text;html=1;strokeColor=none;fillColor=none;align=center;verticalAlign=middle;whiteSpace=wrap;rounded=0;" vertex="1" parent="1">
          <mxGeometry x="280" y="90" width="60" height="30" as="geometry" />
        </mxCell>
        <mxCell id="TeG-pFLX9MFdJFeXtA5G-18" value="No" style="text;html=1;strokeColor=none;fillColor=none;align=center;verticalAlign=middle;whiteSpace=wrap;rounded=0;" vertex="1" parent="1">
          <mxGeometry x="520" y="90" width="60" height="30" as="geometry" />
        </mxCell>
        <mxCell id="TeG-pFLX9MFdJFeXtA5G-21" value="CAP Theorem" style="text;html=1;strokeColor=none;fillColor=none;align=center;verticalAlign=middle;whiteSpace=wrap;rounded=0;" vertex="1" parent="1">
          <mxGeometry x="210" y="460" width="120" height="30" as="geometry" />
        </mxCell>
      </root>
    </mxGraphModel>
  </diagram>
</mxfile>
